<mxfile host="app.diagrams.net" modified="2021-10-19T08:02:43.163Z" agent="5.0 (Windows NT 10.0; Win64; x64) AppleWebKit/537.36 (KHTML, like Gecko) Chrome/94.0.4606.81 Safari/537.36" etag="FS2cueEVbWyxn0Xgrj1N" version="15.5.1" type="github" pages="2">
  <diagram id="rYj4tW9uqbsS22UokSph" name="Page-1">
    <mxGraphModel dx="1422" dy="761" grid="0" gridSize="10" guides="1" tooltips="1" connect="1" arrows="1" fold="1" page="1" pageScale="1" pageWidth="827" pageHeight="1169" math="0" shadow="0">
      <root>
        <mxCell id="0" />
        <mxCell id="1" parent="0" />
        <mxCell id="AHvoXd2i3KOafIges7m4-1" value="" style="rounded=0;whiteSpace=wrap;html=1;" vertex="1" parent="1">
          <mxGeometry x="43" y="157" width="244" height="398" as="geometry" />
        </mxCell>
        <mxCell id="AHvoXd2i3KOafIges7m4-2" value="" style="rounded=0;whiteSpace=wrap;html=1;" vertex="1" parent="1">
          <mxGeometry x="43" y="439" width="243" height="117" as="geometry" />
        </mxCell>
        <mxCell id="AHvoXd2i3KOafIges7m4-3" value="礼物栏" style="text;html=1;strokeColor=none;fillColor=none;align=center;verticalAlign=middle;whiteSpace=wrap;rounded=0;" vertex="1" parent="1">
          <mxGeometry x="135" y="482.5" width="60" height="30" as="geometry" />
        </mxCell>
        <mxCell id="AHvoXd2i3KOafIges7m4-4" value="直播间" style="text;html=1;strokeColor=none;fillColor=none;align=center;verticalAlign=middle;whiteSpace=wrap;rounded=0;" vertex="1" parent="1">
          <mxGeometry x="131" y="183" width="60" height="30" as="geometry" />
        </mxCell>
        <mxCell id="AHvoXd2i3KOafIges7m4-5" value="" style="rounded=0;whiteSpace=wrap;html=1;" vertex="1" parent="1">
          <mxGeometry x="97" y="308" width="138" height="153" as="geometry" />
        </mxCell>
        <mxCell id="AHvoXd2i3KOafIges7m4-6" value="语音声纹" style="text;html=1;strokeColor=none;fillColor=none;align=center;verticalAlign=middle;whiteSpace=wrap;rounded=0;" vertex="1" parent="1">
          <mxGeometry x="135" y="318" width="60" height="30" as="geometry" />
        </mxCell>
        <mxCell id="AHvoXd2i3KOafIges7m4-11" style="edgeStyle=orthogonalEdgeStyle;rounded=0;orthogonalLoop=1;jettySize=auto;html=1;exitX=1;exitY=0.5;exitDx=0;exitDy=0;entryX=0;entryY=0.5;entryDx=0;entryDy=0;" edge="1" parent="1" source="AHvoXd2i3KOafIges7m4-7" target="AHvoXd2i3KOafIges7m4-9">
          <mxGeometry relative="1" as="geometry" />
        </mxCell>
        <mxCell id="AHvoXd2i3KOafIges7m4-7" value="识别录入" style="rounded=0;whiteSpace=wrap;html=1;" vertex="1" parent="1">
          <mxGeometry x="106" y="366" width="120" height="60" as="geometry" />
        </mxCell>
        <mxCell id="AHvoXd2i3KOafIges7m4-12" style="edgeStyle=orthogonalEdgeStyle;rounded=0;orthogonalLoop=1;jettySize=auto;html=1;exitX=1;exitY=0.5;exitDx=0;exitDy=0;" edge="1" parent="1" source="AHvoXd2i3KOafIges7m4-9" target="AHvoXd2i3KOafIges7m4-10">
          <mxGeometry relative="1" as="geometry" />
        </mxCell>
        <mxCell id="AHvoXd2i3KOafIges7m4-9" value="客户端" style="rounded=1;whiteSpace=wrap;html=1;" vertex="1" parent="1">
          <mxGeometry x="364" y="366" width="120" height="60" as="geometry" />
        </mxCell>
        <mxCell id="AHvoXd2i3KOafIges7m4-10" value="服务器" style="rounded=1;whiteSpace=wrap;html=1;" vertex="1" parent="1">
          <mxGeometry x="594" y="366" width="120" height="60" as="geometry" />
        </mxCell>
      </root>
    </mxGraphModel>
  </diagram>
  <diagram id="W6062ZArQteOcNrAfRcM" name="Page-2">
    <mxGraphModel dx="1422" dy="761" grid="0" gridSize="10" guides="1" tooltips="1" connect="1" arrows="1" fold="1" page="1" pageScale="1" pageWidth="827" pageHeight="1169" math="0" shadow="0">
      <root>
        <mxCell id="X3DRUZNG81ktP9isSi0_-0" />
        <mxCell id="X3DRUZNG81ktP9isSi0_-1" parent="X3DRUZNG81ktP9isSi0_-0" />
      </root>
    </mxGraphModel>
  </diagram>
</mxfile>
